<?xml version="1.0" encoding="utf-8"?>
<!-- Generator: Adobe Illustrator 22.1.0, SVG Export Plug-In . SVG Version: 6.00 Build 0)  -->
<svg version="1.1" id="Layer_1" xmlns="http://www.w3.org/2000/svg" xmlns:xlink="http://www.w3.org/1999/xlink" x="0px" y="0px"
	 viewBox="0 0 32 32" style="enable-background:new 0 0 32 32;" xml:space="preserve">
<path d="M4,8.7h24c1.1,0,2-0.8,2-1.9S29.1,5,28,5H4C2.9,5,2,5.8,2,6.9S2.9,8.7,4,8.7z"/>
<path d="M28,13.7H4c-1.1,0-2,0.8-2,1.9c0,1,0.9,1.9,2,1.9h24c1.1,0,2-0.8,2-1.9C30,14.6,29.1,13.7,28,13.7z"/>
<path d="M28,22.4H4c-1.1,0-2,0.8-2,1.9c0,1,0.9,1.9,2,1.9h24c1.1,0,2-0.8,2-1.9C30,23.3,29.1,22.4,28,22.4z"/>
</svg>
