<svg id="Layer_1" data-name="Layer 1" xmlns="http://www.w3.org/2000/svg" viewBox="0 0 821.75 202.64"><defs><style>.cls-1{fill:#232323;}</style></defs><title>shop logo</title><path class="cls-1" d="M-158.65,648.53h-14c0-.55-.1-1.1-.1-1.65q0-65.85,0-131.7c0-1.42.34-1.89,1.83-1.85,4.29.1,8.6.09,12.9,0a2.39,2.39,0,0,1,2.49,1.55Q-129.83,564-104,613.12c1.7,3.23,3.4,6.45,5.35,9.61V513.5H-84.6V648.62c-3.62,0-7.17,0-10.72,0-1.87,0-4.11.49-5.52-.35s-1.86-3-2.71-4.66l-54-102.83a3.43,3.43,0,0,0-1.13-1.38Z" transform="translate(172.79 -513.33)"/><path class="cls-1" d="M347.92,587.16c4.79,2.6,6.79,6.89,8.34,11.58q7.78,23.47,15.68,46.91c.13.39.24.79.43,1.39l-13.32,4.75c-1-2.85-1.92-5.66-2.87-8.47q-7.24-21.6-14.5-43.18c-.6-1.78-1.42-3.48-2.14-5.22a6.51,6.51,0,0,0-6.45-4.17c-8.76,0-17.51,0-26.27,0a2.88,2.88,0,0,0-.59.18v57.6h-14V513.37h38.91c16.4,0,29.29,9,34.24,24.68,4.68,14.85,2.68,28.8-7.45,41.11A33.73,33.73,0,0,1,347.92,587.16Zm-41.73-10.39c.51.06.71.1.92.1,8.65,0,17.31,0,26,0a17.38,17.38,0,0,0,11.35-4.39,27,27,0,0,0,7.49-29.8c-3.61-9.63-11-14.79-21.26-14.79-7.5,0-15,0-22.5,0-1.61,0-2,.43-2,2,.06,15,0,30.11,0,45.16Z" transform="translate(172.79 -513.33)"/><path class="cls-1" d="M208.94,648.62l-11.55,1c-1-5.9-2-11.62-3-17.84-.48.86-.74,1.32-1,1.78a38.16,38.16,0,0,1-9.64,11.89c-12.1,9.55-30,7.55-40.51-4.46-5.49-6.26-8.55-13.65-10-21.71-2.55-13.79-2.56-27.53,1.7-41a50.2,50.2,0,0,1,12.19-20.3,37.26,37.26,0,0,1,29.37-11.48A52.23,52.23,0,0,1,206.05,557a2.71,2.71,0,0,1,1.22,2.47c0,20.83-.15,41.65,0,62.47.07,7.69.88,15.37,1.36,23.06C208.74,646.16,208.84,647.3,208.94,648.62Zm-14.82-65.79-.29,0c0-5.45-.05-10.91,0-16.36a2.27,2.27,0,0,0-1.49-2.39,38.83,38.83,0,0,0-15.53-4.13,25.55,25.55,0,0,0-21.92,9.5,39.27,39.27,0,0,0-7.77,14.6c-2.72,9.34-2.79,18.83-1.4,28.36.88,6.09,2.73,11.84,6.49,16.83,3.35,4.42,7.58,7.5,13.17,8.42,7.89,1.3,13.89-1.89,18.65-7.92,5.7-7.21,8.19-15.67,9-24.6C193.74,597.72,193.79,590.26,194.12,582.83Z" transform="translate(172.79 -513.33)"/><path class="cls-1" d="M649,648.61l-11.55,1c-1-5.86-2-11.62-3-17.85l-1,1.81a38.26,38.26,0,0,1-9.65,11.88c-12.13,9.54-30,7.52-40.51-4.51-5.48-6.26-8.54-13.65-10-21.71-2.55-13.79-2.62-27.56,1.74-41,3.63-11.23,10.12-20.44,20.32-26.69,6.5-4,13.69-5.38,21.24-5.06a52.32,52.32,0,0,1,29.33,10.4,3.14,3.14,0,0,1,1.45,2.85c0,22.23-.14,44.47,0,66.71,0,6.22.89,12.43,1.37,18.65C648.78,646.19,648.86,647.32,649,648.61Zm-14.82-65.93h-.3c0-5.46,0-10.91,0-16.37a2.07,2.07,0,0,0-1.34-2.15A39.53,39.53,0,0,0,618.12,560c-8.32-.74-15.55,1.57-21.48,7.55A38.1,38.1,0,0,0,587.17,584c-2.73,9.34-2.79,18.83-1.41,28.36.88,6.09,2.73,11.84,6.49,16.83s8.38,8,14.57,8.62c7.35.71,12.86-2.54,17.25-8.1,5.7-7.21,8.2-15.67,9-24.6C633.76,597.67,633.81,590.16,634.14,582.68Z" transform="translate(172.79 -513.33)"/><path class="cls-1" d="M22.3,595.76c0,14.1-1.49,24.82-6.33,34.87C12.32,638.19,7.42,644.78-.56,648c-13.6,5.52-26.9,5.15-38.91-4.17-6.33-4.92-9.76-12-12.27-19.41-3.38-10-4.14-20.39-3.61-30.89.47-9.13,2.13-18,6.07-26.31,3.72-7.86,8.78-14.65,17.14-17.79,13.71-5.16,27-4.61,38.81,5.06,6.14,5,9.53,12,12,19.4A71.78,71.78,0,0,1,22.3,595.76ZM9,598.12c-.08-1.5-.14-3.75-.33-6C8.07,584.9,6.51,578,3,571.54-.83,564.74-6.44,560.65-14.3,560c-8.87-.72-16.12,2.19-20.92,10a41,41,0,0,0-3.6,7.49c-3.32,9.09-3.68,18.55-3,28.08a51.46,51.46,0,0,0,4.52,18.52c4.95,10.59,13.09,15.14,24.65,13.55,7.46-1,12.53-5.44,16-11.94C7.73,617.28,8.86,608.19,9,598.12Z" transform="translate(172.79 -513.33)"/><path class="cls-1" d="M391.73,598.7c.12-10.82,1.52-21.5,6.27-31.53,3.78-8,9-14.58,17.45-17.92a39.6,39.6,0,0,1,30.49.16c8.26,3.38,13.47,9.91,17.26,17.73a64.52,64.52,0,0,1,6.08,24.23c.8,11.92.1,23.69-4.22,35-2.48,6.48-5.85,12.44-11.18,17-8,7-17.58,8.64-27.81,7.75s-18.56-5.47-24.42-14.11a51.7,51.7,0,0,1-6.17-12.68C392.7,616.08,391.8,607.52,391.73,598.7Zm64.52-.66c-.08-1.43-.14-3.69-.32-5.94-.6-7.22-2.17-14.17-5.73-20.57-3.78-6.8-9.4-10.89-17.27-11.52-8.87-.71-16.12,2.2-20.91,10a41.57,41.57,0,0,0-3.59,7.49c-3.31,9.09-3.68,18.55-3,28.08a53.22,53.22,0,0,0,4.52,18.53c5.95,13.16,17.33,15.57,27.43,12.9,7-1.85,11.19-6.88,14.11-13.16C455.15,615.91,456.13,607.47,456.25,598Z" transform="translate(172.79 -513.33)"/><path class="cls-1" d="M490.19,637.93c2.31-3.48,4.64-7,7.24-10.94a16.05,16.05,0,0,0,1.19,1.54c8,7.69,17.55,10.79,28.44,8.4,6.12-1.34,10.92-4.86,12.21-11.47a15.79,15.79,0,0,0-9.5-17.69c-4.52-1.92-9.22-3.44-13.85-5.08A59.36,59.36,0,0,1,504.21,597a20.34,20.34,0,0,1-9.64-14.6,37.13,37.13,0,0,1,.8-17.28c3.18-10.35,10.79-16,20.93-18,11.14-2.23,21.61.63,31.58,5.67a4,4,0,0,1,.56.44c-1.62,4-3.23,7.92-4.89,12a32.2,32.2,0,0,0-13.23-4.55,45.57,45.57,0,0,0-11.25-.09c-8,1.24-12.41,7.29-11.54,15.08.6,5.42,4,8.85,8.68,10.91s9.32,3.45,14,5.1a50.53,50.53,0,0,1,12.13,6.2,23.18,23.18,0,0,1,9.91,15.79,38.6,38.6,0,0,1-.8,17.91c-3.17,10.56-10.81,16.5-21.14,18.72-15,3.21-28.26-.44-39.33-11.29-.22-.22-.43-.46-.64-.69A2,2,0,0,1,490.19,637.93Z" transform="translate(172.79 -513.33)"/><path class="cls-1" d="M118.15,549.21c-1.2,3.65-2.34,7.17-3.5,10.69q-14.41,43.62-28.8,87.26a1.78,1.78,0,0,1-2.06,1.5c-4.35-.08-8.71-.06-13.06,0a1.44,1.44,0,0,1-1.65-1.18q-16-48.57-32-97.11c-.12-.34-.18-.69-.29-1.1H51.1Q64.24,590,77.39,630.79l.34,0c.17-.51.36-1,.52-1.52Q90.84,590,103.38,550.76c.39-1.2.87-1.62,2.16-1.59C109.67,549.27,113.82,549.21,118.15,549.21Z" transform="translate(172.79 -513.33)"/><path class="cls-1" d="M352.37,684.25v2.3q0,13.61,0,27.22c0,1.53-.56,2-2,1.63-.37-.1-.67-.62-.88-1a2.21,2.21,0,0,1,0-.93q0-15.51,0-31c0-1-.33-2.21,1.11-2.61a3.12,3.12,0,0,1,3.82,1.38c1.34,2.49,2.59,5,3.85,7.56q5,10.13,10.05,20.27a2.25,2.25,0,0,0,.77,1c0-.47.07-.94.07-1.42q0-13.53,0-27.06c0-1.65.39-2,1.94-1.69a1.6,1.6,0,0,1,1,1.06,14,14,0,0,1,.05,2.51q0,14.72,0,29.43c0,1,.23,2.15-1.06,2.49a2.64,2.64,0,0,1-3.25-1.27c-1.39-2.58-2.75-5.18-4.06-7.8q-5.33-10.6-10.61-21.23c-.14-.28-.3-.54-.45-.81Z" transform="translate(172.79 -513.33)"/><path class="cls-1" d="M558.53,684.25v2.29q0,13.62,0,27.23c0,1.53-.55,2-2,1.63-.37-.1-.67-.62-.88-1a2.21,2.21,0,0,1,0-.93q0-15.5,0-31c0-1-.33-2.21,1.1-2.61a3.12,3.12,0,0,1,3.83,1.38c1.34,2.49,2.59,5,3.85,7.56q5,10.13,10,20.27a2.27,2.27,0,0,0,.76,1c0-.47.08-.94.08-1.41q0-13.53,0-27.07c0-1.65.38-2,1.93-1.69a1.64,1.64,0,0,1,1,1.06,10.06,10.06,0,0,1,0,2.2q0,14.86,0,29.74c0,1,.23,2.15-1.06,2.49a2.65,2.65,0,0,1-3.25-1.26c-1.39-2.59-2.75-5.19-4.06-7.81q-5.32-10.6-10.61-21.23c-.14-.27-.3-.54-.45-.81Z" transform="translate(172.79 -513.33)"/><path class="cls-1" d="M331.17,696.36c4.85,2.62,6.73,6.57,5.61,11.61A8.94,8.94,0,0,1,328,715.3c-2.93.13-5.87,0-8.81.06-1.27,0-1.78-.63-1.77-1.85V681.59c0-.93.26-1.75,1.34-1.75A73.42,73.42,0,0,1,328,680c4.95.62,7.58,4.55,6.95,9.8C334.59,692.75,333.7,694.31,331.17,696.36Zm-10.8,16c2.57,0,5.07.11,7.56,0a6,6,0,0,0,5.9-5.62c.37-4.14-1.22-7.12-4.67-7.79a71.55,71.55,0,0,0-8.79-.64Zm-.09-16.79c2.16,0,4.09.05,6,0a5.25,5.25,0,0,0,5.14-3.88c.95-2.87.34-6.16-1.47-7.59a3.78,3.78,0,0,0-1.79-.91c-2.57-.27-5.16-.4-7.8-.58,0,.79-.09,1.2-.09,1.61C320.27,687.89,320.28,691.61,320.28,695.54Z" transform="translate(172.79 -513.33)"/><path class="cls-1" d="M543.21,697.15a27.19,27.19,0,0,1-1.68,10.34,13.22,13.22,0,0,1-18.1,7.17,11.22,11.22,0,0,1-6.1-7.24,31.12,31.12,0,0,1,0-18.88C520,680,527.61,678.05,534.38,680c3.51,1,5.75,3.52,7.13,6.83A26.36,26.36,0,0,1,543.21,697.15Zm-2.73.37a87.27,87.27,0,0,0-1.81-8.94,8.34,8.34,0,0,0-6.63-6c-5.35-1.1-9.81,1.23-11.61,6.4a27.11,27.11,0,0,0,0,17.59,8.49,8.49,0,0,0,6.05,5.88c5.42,1.48,10.32-.85,12.15-6.14C539.59,703.51,539.88,700.49,540.48,697.52Z" transform="translate(172.79 -513.33)"/><path class="cls-1" d="M305.08,697.17a30.12,30.12,0,0,1-1.82,10.35,13.24,13.24,0,0,1-18.12,7.13,11.23,11.23,0,0,1-6.08-7.26,31,31,0,0,1,0-18.88c2.77-8.68,10.64-10.47,17.24-8.44a10.82,10.82,0,0,1,6.95,6.8,18,18,0,0,1,1.16,3.9C304.74,692.89,304.87,695,305.08,697.17Zm-2.92.57c-.49-2.94-.7-5.62-1.4-8.17-1.29-4.7-4.47-7.15-8.89-7.26-4.71-.12-8.16,2.12-9.72,6.68a27.24,27.24,0,0,0,0,17.59,8.46,8.46,0,0,0,5.93,5.8c5.45,1.56,10.42-.78,12.27-6.14A63.43,63.43,0,0,0,302.16,697.74Z" transform="translate(172.79 -513.33)"/><path class="cls-1" d="M249.55,679.64a50.64,50.64,0,0,1,6.54.64c5.74,1.31,8.86,5.28,10.13,10.82a27.44,27.44,0,0,1-.52,14.44c-1.91,6.14-6.53,9.52-13.15,9.77-2.2.09-4.4,0-6.6,0-1.9,0-2.21-.29-2.21-2.19q0-11.08,0-22.18c0-3,0-6.08,0-9.12,0-1.44.52-2.15,2-2.07,1.25.07,2.51,0,3.77,0Zm-2.84,32.65c2.27,0,4.42.1,6.55,0,4.85-.26,8-2.72,9.44-7.38a24.87,24.87,0,0,0,.18-14,10.26,10.26,0,0,0-6.47-7.39c-3.13-1.14-6.38-.81-9.7-.75Z" transform="translate(172.79 -513.33)"/><path class="cls-1" d="M232.85,715.15c-2.45.71-2.86.5-3.56-1.7-.74-2.35-1.52-4.68-2.22-7a1.35,1.35,0,0,0-1.54-1.14c-3.83.05-7.65.07-11.48,0-1.08,0-1.44.44-1.7,1.35-.73,2.51-1.46,5-2.33,7.49a2.31,2.31,0,0,1-1.43,1.32c-1.68.35-2.07-.19-1.53-1.85,3.53-10.79,7.08-21.57,10.57-32.37a2.3,2.3,0,0,1,4.35-.05q5.25,16.27,10.58,32.54A12.16,12.16,0,0,1,232.85,715.15ZM213.69,702.4h12.05c-2-6.32-4-12.48-6.09-19.12C217.58,689.9,215.66,696.07,213.69,702.4Z" transform="translate(172.79 -513.33)"/><path class="cls-1" d="M481.82,715.12c-2.35.78-2.87.53-3.55-1.63-.75-2.34-1.53-4.67-2.22-7a1.43,1.43,0,0,0-1.66-1.19q-5.75.08-11.48,0a1.34,1.34,0,0,0-1.54,1.14c-.74,2.57-1.58,5.1-2.31,7.67a1.66,1.66,0,0,1-1.76,1.42c-1.49,0-1.79-.31-1.33-1.73,3.55-10.89,7.13-21.77,10.65-32.68a1.9,1.9,0,0,1,2.08-1.47,2,2,0,0,1,2.23,1.48c3.49,10.86,7.05,21.7,10.58,32.54C481.66,714.12,481.72,714.64,481.82,715.12Zm-7.1-12.67-6-18.67-.32,0c-1.92,6.2-3.85,12.39-5.81,18.69Z" transform="translate(172.79 -513.33)"/><path class="cls-1" d="M189.21,711.65c2.22-7.28,4.32-14.13,6.4-21q1.42-4.67,2.84-9.31c.57-1.88,1.45-2.21,3.46-1.26-.12.48-.23,1-.38,1.48-3.43,10.71-6.88,21.41-10.26,32.14a2.13,2.13,0,0,1-2.31,1.79c-1.28,0-1.79-.6-2.16-1.77-3.37-10.67-6.8-21.33-10.21-32-.17-.54-.31-1.09-.45-1.6,2-1,2.91-.68,3.51,1.22q4.5,14.29,9,28.59C188.78,710.41,188.94,710.84,189.21,711.65Z" transform="translate(172.79 -513.33)"/><path class="cls-1" d="M165.81,684.94a10.78,10.78,0,0,0-1.59-.93,25.67,25.67,0,0,0-5.15-1.64A4.8,4.8,0,0,0,154,685a5.6,5.6,0,0,0,.35,6.25,15,15,0,0,0,3.64,3.13c1.7,1.13,3.59,2,5.32,3,4.17,2.6,5.71,6.65,4.42,11.4-1.17,4.28-4.48,6.74-9.35,6.94a12.94,12.94,0,0,1-7.48-2c-.51-.31-1.13-.81-1.24-1.32a9.62,9.62,0,0,1,.08-2.56,10,10,0,0,1,1.89.71c2.52,1.57,5.15,2.56,8.18,2a5.83,5.83,0,0,0,4.8-4c.81-2.44.66-4.82-1.21-6.74a18.28,18.28,0,0,0-3.37-2.52c-1.82-1.14-3.78-2.05-5.56-3.25-3.5-2.37-4.68-5.83-4-9.88.86-5,5.74-7.88,11.18-6.58a14.22,14.22,0,0,1,3.21,1.24C166.5,681.73,166.79,683,165.81,684.94Z" transform="translate(172.79 -513.33)"/><path class="cls-1" d="M445.58,684.92a10.68,10.68,0,0,0-1.72-1,24.23,24.23,0,0,0-5-1.55,4.77,4.77,0,0,0-5.09,2.69,5.57,5.57,0,0,0,.38,6.24,16.29,16.29,0,0,0,3.78,3.21c1.65,1.1,3.5,1.89,5.19,2.94a9.57,9.57,0,0,1,4.42,11.26c-1.14,4.32-4.42,6.82-9.26,7a13.11,13.11,0,0,1-7.77-2c-1.46-.92-1.72-2.26-.77-4.08.58.34,1.15.65,1.71,1a10.93,10.93,0,0,0,8,2,5.83,5.83,0,0,0,5-4.22c.76-2.52.5-4.92-1.51-6.82a19.56,19.56,0,0,0-3.18-2.28c-1.78-1.09-3.68-2-5.42-3.16-3.57-2.39-4.79-5.87-4.08-10,.88-5,5.78-7.86,11.2-6.52a14.35,14.35,0,0,1,3.34,1.32C446.35,681.81,446.59,683.12,445.58,684.92Z" transform="translate(172.79 -513.33)"/><path class="cls-1" d="M382.87,680.1c2-.9,3-.59,3.72,1.18,2.37,5.47,4.73,11,7.15,16.55a7.07,7.07,0,0,0,.48-.82q3.33-7.8,6.65-15.61c.82-1.92,1.26-2.11,3.59-1.43a19,19,0,0,1-.6,1.85c-2.71,6.13-5.45,12.24-8.14,18.39a6.2,6.2,0,0,0-.52,2.4c-.05,3.78-.06,7.56,0,11.33,0,1.07-.33,1.54-1.41,1.56s-1.59-.38-1.57-1.57c.06-3.56.08-7.13,0-10.7a9.53,9.53,0,0,0-.73-3.46c-2.57-6-5.25-11.88-7.88-17.82C383.33,681.34,383.11,680.71,382.87,680.1Z" transform="translate(172.79 -513.33)"/><path class="cls-1" d="M495.59,712.3c3.87,0,7.54.05,11.2,0,1.34,0,1.77.54,1.69,1.79-.07.9-.43,1.3-1.37,1.29-4.25,0-8.5,0-12.74,0a1.46,1.46,0,0,1-1.66-1.64l.06-33.5a.44.44,0,0,1,.05-.15c2.15-.93,2.77-.56,2.77,1.64v30.6Z" transform="translate(172.79 -513.33)"/><path class="cls-1" d="M536.27,669.46a7.37,7.37,0,0,1-.65,1c-1.66,1.82-3.34,3.61-5,5.43a2.54,2.54,0,0,1-3,.72,4.81,4.81,0,0,1,.45-1.05c1.43-1.86,2.87-3.72,4.34-5.55C533.39,668.77,534.56,668.61,536.27,669.46Z" transform="translate(172.79 -513.33)"/><path class="cls-1" d="M401.79,669.54c-2.28,2.42-4.36,4.74-6.59,6.91-.42.42-1.4.27-2.53.45a11.44,11.44,0,0,1,.75-1.45q2.06-2.67,4.15-5.31C398.65,668.8,399.73,668.59,401.79,669.54Z" transform="translate(172.79 -513.33)"/></svg>